PathFileType  4	(X/Y/Z) C:\Users\antoi\Documents\MyRepositories\mobilecap\ResultsAnalysis
DataRate	CameraRate	NumFrames	NumMarkers	Units	OrigDataRate	OrigDataStartFrame	OrigNumFrames
100.0	100.0	4	51	mm	100.0	109	216
Frame#	Time	r_knee			r_shank_antsup			r_ankle			r_calc			r_5meta			r_toe			L_knee			L_shank_antsup			L_ankle			L_calc			L_5meta			L_toe			r_sh2			r_sh3			r_sh4			L_sh2			L_sh3			r_thigh1			r_thigh2			r_thigh3			r_thigh4			r_thigh5			L_thigh1			L_thigh2			L_thigh3			L_thigh4			r.ASIS			r.PSIS			L.ASIS			L.PSIS			C7			R_Shoulder			L_Shoulder			R_Sternum			L_Sternum			R_humerus			R_elbow_med			R_elbow_lat			R_forearm			R_wrist_radius			R_wrist_ulna			L_humerus			L_elbow_med			L_elbow_lat			L_forearm			L_wrist_radius			L_wrist_ulna			R_HJC			L_HJC			R_HJC_reg			L_HJC_reg			
		X1	Y1	Z1	X2	Y2	Z2	X3	Y3	Z3	X4	Y4	Z4	X5	Y5	Z5	X6	Y6	Z6	X7	Y7	Z7	X8	Y8	Z8	X9	Y9	Z9	X10	Y10	Z10	X11	Y11	Z11	X12	Y12	Z12	X13	Y13	Z13	X14	Y14	Z14	X15	Y15	Z15	X16	Y16	Z16	X17	Y17	Z17	X18	Y18	Z18	X19	Y19	Z19	X20	Y20	Z20	X21	Y21	Z21	X22	Y22	Z22	X23	Y23	Z23	X24	Y24	Z24	X25	Y25	Z25	X26	Y26	Z26	X27	Y27	Z27	X28	Y28	Z28	X29	Y29	Z29	X30	Y30	Z30	X31	Y31	Z31	X32	Y32	Z32	X33	Y33	Z33	X34	Y34	Z34	X35	Y35	Z35	X36	Y36	Z36	X37	Y37	Z37	X38	Y38	Z38	X39	Y39	Z39	X40	Y40	Z40	X41	Y41	Z41	X42	Y42	Z42	X43	Y43	Z43	X44	Y44	Z44	X45	Y45	Z45	X46	Y46	Z46	X47	Y47	Z47	X48	Y48	Z48	X49	Y49	Z49	X50	Y50	Z50	X51	Y51	Z51	

109	1.08000000	-204.49116	488.00235	-344.95015	-153.64161	419.28597	-346.35273	-264.56443	93.89998	-327.10902	-337.13533	64.47566	-362.30072	-170.11358	45.62590	-281.00758	-115.69836	68.73602	-334.63944	-196.63626	476.24612	-817.23072	-150.79957	395.54450	-835.59593	-243.11390	98.48481	-847.42349	-317.30554	64.68258	-808.88495	-144.68384	40.74768	-893.37849	-100.06387	62.09385	-836.13364	-192.86456	312.91760	-318.44375	-231.14658	441.48593	-333.53378	-263.62648	334.25153	-318.90699	-238.99523	412.45347	-834.38790	-250.30866	292.14229	-853.05842	-366.68593	749.89668	-378.19553	-295.98153	662.55232	-363.50137	-330.86588	610.00074	-342.08699	-455.41320	678.76175	-377.04618	-378.82693	589.38893	-362.78080	-355.78281	700.96919	-813.63829	-254.40402	606.30272	-818.16861	-426.18185	617.81749	-767.45589	-321.65332	526.25139	-789.62363	-372.22320	836.39015	-458.08687	-544.66272	910.40208	-533.36801	-357.69058	829.74284	-697.66084	-545.45190	916.60140	-633.07063	-297.02261	1288.79961	-605.53458	-229.53411	1289.06394	-474.70713	-235.30807	1271.52845	-734.63511	-187.08887	1178.70429	-566.12421	-186.85264	1177.07896	-616.53597	-255.57524	1307.78491	-360.08600	-352.32880	1240.02281	-168.27948	-328.06873	1317.22035	-173.34759	-194.09488	1285.17710	-186.80964	-77.75564	1242.63645	-206.24649	-67.76903	1233.52831	-174.15286	-240.90700	1252.31574	-839.66574	-302.10669	1096.01535	-1013.60252	-292.75956	1180.99476	-1024.31177	-195.96811	1175.79320	-972.98185	-60.41510	1157.65864	-922.72196	-49.52619	1170.28033	-952.95989	-459.40597	772.06966	-478.65539	-451.91713	774.02641	-684.97982	-448.37700	772.23122	-494.29539	-449.61779	782.06671	-652.45414	
110	1.09000000	-169.89047	497.93101	-341.18584	-126.03801	425.52261	-345.03187	-258.47935	102.94159	-326.58271	-334.02912	69.55095	-364.23295	-168.56735	45.60181	-281.55889	-113.00273	67.74002	-334.07800	-181.23308	467.21162	-811.53284	-134.39987	388.23893	-827.69537	-241.82121	97.62279	-844.62435	-317.17522	62.16562	-807.60653	-144.94537	41.27440	-892.21136	-100.52920	61.90337	-835.01723	-172.46931	322.92988	-313.29456	-201.27987	453.66117	-330.35571	-240.61763	348.48689	-314.86407	-222.14910	407.48785	-828.22629	-236.90539	287.60406	-848.69969	-361.44495	743.88787	-383.84797	-281.43978	665.99596	-366.00128	-310.14748	611.58247	-340.88745	-442.22209	663.58135	-378.55261	-355.95158	584.81906	-359.55408	-346.78110	680.04394	-814.29787	-241.74838	590.06364	-815.25453	-415.79122	595.78738	-766.45578	-307.40348	508.18750	-785.51325	-367.42444	807.72566	-460.57923	-542.82689	882.27760	-533.56478	-355.83105	801.26366	-697.67484	-543.83416	888.21548	-635.50500	-288.20811	1260.77523	-606.82131	-218.81016	1265.56753	-476.23479	-224.89188	1248.04886	-734.68135	-175.89600	1154.01204	-566.72846	-173.20261	1151.83793	-616.06544	-246.05810	1286.43496	-365.52658	-339.96770	1221.13267	-171.03483	-318.46313	1299.10286	-178.05727	-183.34426	1270.40273	-191.27295	-66.10590	1230.95854	-210.57744	-55.71538	1222.17999	-178.59863	-231.20124	1233.11939	-837.68179	-283.50989	1081.60620	-1019.12848	-278.91449	1167.73434	-1025.86885	-181.90560	1165.21156	-974.25534	-45.98011	1152.42925	-923.07702	-36.05932	1166.21660	-953.53494	-456.11036	743.86507	-479.69499	-449.82154	745.39231	-686.06172	-444.90098	744.82961	-495.96372	-446.43250	753.94335	-652.43754	
111	1.10000000	-146.88913	499.56941	-338.09708	-106.53169	422.79474	-341.79127	-254.30157	105.91809	-327.07246	-331.45798	72.60923	-366.13337	-167.32593	45.29603	-281.72617	-110.78640	66.68555	-333.42717	-161.32662	471.25664	-805.16535	-112.18427	387.19577	-822.60507	-237.14767	102.93483	-842.95009	-315.40918	66.14947	-806.13280	-144.10054	41.41734	-891.15413	-98.65391	60.89972	-834.43543	-156.64259	321.37133	-311.75006	-179.88769	453.71563	-322.98004	-222.83453	350.10724	-310.72089	-198.23167	411.01549	-824.33091	-219.65865	292.30682	-847.17988	-355.81513	739.35975	-390.62985	-272.02678	668.15134	-369.32555	-294.55562	616.25870	-335.50297	-430.07173	653.26202	-379.27510	-338.77582	584.12495	-350.57547	-339.54565	667.95340	-813.83339	-229.06666	585.06932	-810.76508	-406.15119	580.90188	-766.11531	-290.78156	500.36110	-779.83817	-362.86535	781.30277	-462.51625	-539.75034	858.61152	-537.28456	-355.20270	774.89292	-699.59630	-540.22851	864.48613	-639.80874	-277.77385	1235.12097	-607.76554	-207.68880	1241.42629	-478.02321	-212.30371	1224.54155	-734.87051	-165.25101	1128.67633	-567.60273	-162.83305	1124.20832	-615.78697	-236.34036	1264.65757	-370.17452	-326.88994	1201.20999	-173.85298	-308.52126	1279.82689	-182.30429	-172.21501	1254.61144	-195.70515	-54.22262	1218.22175	-215.05588	-43.64042	1209.55392	-183.67764	-220.95814	1213.34606	-836.00455	-265.89500	1066.96706	-1023.73977	-265.07573	1153.76720	-1026.65156	-168.40727	1153.29848	-974.84336	-32.17820	1145.24716	-923.37570	-22.57568	1159.71222	-952.93420	-454.34932	719.35698	-482.20096	-448.49527	719.85891	-688.58692	-443.35485	719.44289	-498.28347	-444.07911	728.40004	-654.63720	
112	1.11000000	-135.32586	491.51473	-335.76340	-92.78133	412.57950	-338.45088	-252.82768	105.59939	-328.47262	-330.28067	74.03180	-367.58085	-167.20683	45.67032	-281.83016	-110.10937	66.64000	-333.19950	-137.25736	477.92529	-802.10792	-92.75817	385.54977	-820.58166	-234.66856	106.34011	-841.98237	-314.65765	68.34482	-805.02722	-143.59558	41.90004	-890.73577	-97.42393	60.85816	-834.16051	-146.05536	311.82946	-312.22329	-164.62025	445.59611	-318.03654	-211.30990	343.08266	-308.93042	-176.32452	416.16301	-824.13699	-207.00697	299.03269	-847.26106	-350.51828	729.61746	-391.24793	-265.34283	662.44351	-369.77183	-284.21642	612.23284	-330.20023	-420.42721	640.27085	-377.64896	-326.61355	576.52483	-344.41635	-332.57026	662.29697	-811.33427	-216.60025	586.54567	-807.35483	-394.50211	570.14444	-766.65689	-272.21909	497.91698	-777.92858	-359.00559	758.68198	-464.30288	-534.80064	839.76641	-541.66924	-352.65200	751.75009	-701.20237	-533.94149	846.13239	-643.55529	-266.13590	1212.66922	-608.48599	-195.98787	1216.98656	-480.60717	-198.88425	1202.00451	-735.06322	-155.36710	1103.91665	-569.40123	-155.35445	1096.54044	-616.74046	-226.15943	1242.23389	-374.09888	-313.46038	1180.43185	-176.24265	-297.74994	1259.36438	-186.12228	-160.49575	1237.84946	-199.97044	-41.73394	1204.35144	-219.86064	-30.99640	1195.62419	-188.86674	-209.74388	1193.83169	-835.26363	-248.57955	1051.50174	-1027.53157	-251.06812	1138.45278	-1027.01949	-155.06891	1139.91495	-975.17048	-18.46552	1136.00229	-923.74287	-8.92785	1150.79118	-952.43659	-452.87929	699.15267	-484.74154	-446.11526	698.72689	-691.10121	-442.00685	697.56028	-501.37893	-440.69188	707.31789	-657.53084	
